#N canvas -8 -8 1782 1037 10;
#X declare -lib oscx;
#X obj 212 178 import oscx;
#X obj 166 264 sendOSC;
#X floatatom 166 289 5 0 0 0 - - -;
#X msg 77 206 disconnect;
#X floatatom 205 289 5 0 0 0 - - -;
#X obj 307 141 bng 15 250 50 0 empty empty empty 17 7 0 10 -262144
-1 -1;
#X obj 307 177 random 100;
#X obj 180 140 loadbang;
#X obj 168 170 bng 15 250 50 0 empty empty empty 17 7 0 10 -262144
-1 -1;
#X msg 166 205 connect localhost 9998;
#X msg 307 205 send /recieveMessage \$1;
#X obj 307 100 OSCroute /keyboardInput;
#X obj 485 178 OSCroute /filePath;
#X floatatom 347 141 5 0 0 0 - - -;
#X obj 485 204 bng 15 250 50 0 empty empty empty 17 7 0 10 -262144
-1 -1;
#X obj 485 233 openpanel;
#N canvas 0 0 450 300 (subpatch) 0;
#X array songarray 8.49659e+006 float 0;
#X coords 0 1 8.49659e+006 -1 200 150 1 0 0;
#X restore 770 443 graph;
#X msg 485 261 read -resize \$1 songarray;
#X obj 485 294 soundfiler;
#X floatatom 549 311 12 0 0 0 - - -;
#X obj 549 330 s sampleSize;
#X obj 485 352 expr 44100 /$f1;
#X floatatom 513 369 5 0 0 0 - - -;
#X obj 485 411 phasor~;
#X obj 484 440 *~;
#X obj 484 600 tabread4~ songarray;
#X obj 670 512 r sampleSize;
#X obj 614 558 /;
#X floatatom 614 578 12 0 0 0 - - -;
#X obj 485 647 *~ 1;
#X obj 773 594 hsl 195 15 0 1 0 0 empty empty empty -2 -8 0 10 -262144
-1 -1 960 1;
#X floatatom 670 542 12 0 0 0 - - -;
#X obj 555 423 r sampleSize;
#X obj 1368 60 snapshot~;
#X obj 1368 16 tgl 15 0 empty empty empty 17 7 0 10 -262144 -1 -1 0
1;
#X floatatom 1368 91 12 0 0 0 - - -;
#X obj 1445 90 r largest;
#X obj 1410 184 s largest;
#X obj 1307 91 r smaller;
#X obj 1350 185 s smaller;
#X floatatom 1307 110 5 0 0 0 - - -;
#X floatatom 1445 109 20 0 0 0 - - -;
#X obj 1410 160 max;
#X obj 1350 161 min;
#X obj 274 396 hsl 128 15 -1 1 0 0 empty empty empty -2 -8 0 5 -262144
-1 -1 6350 1;
#X floatatom 271 371 12 0 0 0 - - -;
#X obj 254 356 bng 15 250 50 0 empty empty empty 17 7 0 10 -262144
-1 -1;
#X obj 271 353 r expVal;
#X obj 553 385 s expVal;
#X msg 1279 93 0;
#X msg 1509 92 0;
#X obj 1368 36 metro 10;
#X obj 337 516 vsl 15 128 0 1 0 0 empty empty volume/amplitude 0 -9
0 10 -262144 -1 -1 7493 1;
#X text 78 478 miss;
#X floatatom 337 651 5 0 0 0 - - -;
#X obj 337 671 s ampl;
#X obj 125 457 +;
#X text 147 456 poor;
#X text 172 435 good;
#X text 197 411 excellent;
#X obj 150 435 +;
#X obj 175 412 +;
#X obj 140 378 r ampl;
#X msg 69 440 0.1;
#X msg 95 418 0.2;
#X msg 112 395 0.3;
#X text 62 362 amplitude modifiers;
#X text 846 425 song visualiz-o-tron;
#X obj 475 685 dac~;
#X text 643 260 data into songarray;
#X text 551 368 set default playback speed;
#X text 635 561 for progress bar;
#X text 544 406 pipe sound into player;
#X text 259 558 game element:;
#X text 110 570 if player misses note \, set volume low;
#X text 97 582 player must earn back up to full volume;
#X text 1386 19 alternate idea for lower/greater analyzer;
#X text 600 179 call to load song (cant get mp3's to work \, but wavs
do);
#X text 306 220 keyboard stuff(eventually);
#N canvas 2 1 868 707 autocreator 1;
#X obj 15 16 inlet;
#X obj 15 119 bng 15 250 50 0 empty empty empty 17 7 0 10 -262144 -1
-1;
#X obj 52 122 print peaks;
#X floatatom 321 187 5 0 0 0 - - -;
#X floatatom 361 187 5 0 0 0 - - -;
#X floatatom 411 187 5 0 0 0 - - -;
#X floatatom 455 187 5 0 0 0 - - -;
#X floatatom 511 187 5 0 0 0 - - -;
#X floatatom 562 187 5 0 0 0 - - -;
#X floatatom 598 188 5 0 0 0 - - -;
#X floatatom 645 188 5 0 0 0 - - -;
#X floatatom 253 187 10 0 0 0 - - -;
#X floatatom 173 187 12 0 0 0 - - -;
#X floatatom 684 188 5 0 0 0 - - -;
#X obj 15 78 sigmund~ -npeak 10000 -maxfreq 9000 peaks;
#X text 201 47 magic happens here;
#X text 360 91 more whiz-bang magic here...;
#X text 122 119 use to spam the console;
#X obj 173 266 vsl 15 128 0 8000 0 0 empty empty empty 0 -9 0 10 -262144
-1 -1 68 1;
#X obj 598 258 vsl 15 128 0 8000 0 0 empty empty empty 0 -9 0 10 -262144
-1 -1 4216 1;
#X obj 321 260 vsl 15 128 0 8000 0 0 empty empty empty 0 -9 0 10 -262144
-1 -1 615 1;
#X obj 361 261 vsl 15 128 0 8000 0 0 empty empty empty 0 -9 0 10 -262144
-1 -1 1428 1;
#X obj 411 260 vsl 15 128 0 8000 0 0 empty empty empty 0 -9 0 10 -262144
-1 -1 1563 1;
#X obj 455 257 vsl 15 128 0 8000 0 0 empty empty empty 0 -9 0 10 -262144
-1 -1 2735 1;
#X obj 511 260 vsl 15 128 0 8000 0 0 empty empty empty 0 -9 0 10 -262144
-1 -1 3312 1;
#X obj 562 259 vsl 15 128 0 8000 0 0 empty empty empty 0 -9 0 10 -262144
-1 -1 3881 1;
#X obj 684 255 vsl 15 128 0 8000 0 0 empty empty empty 0 -9 0 10 -262144
-1 -1 4376 1;
#X obj 645 257 vsl 15 128 0 8000 0 0 empty empty empty 0 -9 0 10 -262144
-1 -1 4811 1;
#X obj 253 263 vsl 15 128 0 8000 0 0 empty empty empty 0 -9 0 10 -262144
-1 -1 475 1;
#X obj 424 114 route 0 1 2 3 4 5 6 7 8 9 10 11 12;
#X floatatom 724 188 5 0 0 0 - - -;
#X obj 724 255 vsl 15 128 0 8000 0 0 empty empty empty 0 -9 0 10 -262144
-1 -1 5282 1;
#X floatatom 764 189 5 0 0 0 - - -;
#X obj 764 256 vsl 15 128 0 8000 0 0 empty empty empty 0 -9 0 10 -262144
-1 -1 5955 1;
#X floatatom 806 189 5 0 0 0 - - -;
#X obj 806 256 vsl 15 128 0 8000 0 0 empty empty empty 0 -9 0 10 -262144
-1 -1 56 1;
#X msg 15 47 list songarray 512 \$1 44100 0;
#X connect 0 0 36 0;
#X connect 3 0 20 0;
#X connect 4 0 21 0;
#X connect 5 0 22 0;
#X connect 6 0 23 0;
#X connect 7 0 24 0;
#X connect 8 0 25 0;
#X connect 9 0 19 0;
#X connect 10 0 27 0;
#X connect 11 0 28 0;
#X connect 12 0 18 0;
#X connect 13 0 26 0;
#X connect 14 0 1 0;
#X connect 14 0 29 0;
#X connect 29 0 12 0;
#X connect 29 1 11 0;
#X connect 29 2 3 0;
#X connect 29 3 4 0;
#X connect 29 4 5 0;
#X connect 29 5 6 0;
#X connect 29 6 7 0;
#X connect 29 7 8 0;
#X connect 29 8 9 0;
#X connect 29 9 10 0;
#X connect 29 10 13 0;
#X connect 29 11 30 0;
#X connect 29 12 32 0;
#X connect 29 13 34 0;
#X connect 30 0 31 0;
#X connect 32 0 33 0;
#X connect 34 0 35 0;
#X connect 36 0 14 0;
#X restore 513 571 pd autocreator;
#X msg 108 477 0.09;
#X obj 577 514 snapshot~;
#X obj 581 490 metro 50;
#X obj 581 468 tgl 15 0 empty empty empty 17 7 0 10 -262144 -1 -1 1
1;
#X floatatom 577 542 12 0 0 0 - - -;
#N canvas 0 0 1782 1003 listing-tabdump-help 0;
#X text 12 92 HELP_PATCH_AUTHORS Frank Barknecht. "pd meta" information
added by Jonathan Wilkes for Pd version 0.42.;
#X msg 613 165 0 1 2 3 4 5 6 7 8 9 10;
#X obj 613 142 loadbang;
#X msg 34 234 bang;
#X obj 34 492 print dump;
#X obj 614 250 loadbang;
#X msg 614 273 0 10 20 30 40 50 60 70 80 90 100;
#X obj 614 295 s y-dump;
#X obj 614 321 table y-dump 10;
#X obj 613 212 table x-dump 10;
#X obj 613 187 s x-dump;
#X floatatom 41 296 5 0 0 0 - - -;
#X msg 50 387 list x-dump 3 4;
#X msg 50 331 list x-dump 3;
#X msg 51 415 list y-dump 1 3;
#X obj 84 605 expr size("$s1");
#X floatatom 99 631 5 0 0 0 - - -;
#X obj 31 573 t a a;
#X obj 31 653 pack s 0;
#X msg 31 551 symbol y-dump;
#X text 208 603 gets size of array;
#X text 16 131 list-tabdump: get a table's content as a list.;
#X text 167 295 float <x>: set <count> to <x> and do a dump;
#X text 28 166 Arguments: <table> <count> <start>;
#X text 169 331 list <tablename> <count>: set <tablename> and <count>
and do a dump.;
#X text 169 399 list <tablename> <count> <start>: set <tablename> \,
<count> and <start> position and do a dump.;
#X text 166 232 bang: dump contents of table as specified by <table>
\, <count> and <start>. <table> \, <count> and <start> can be set by
arguments or with the following messages.;
#X obj 34 457 list-tabdump x-dump;
#X text 28 199 Inlet methods:;
#X obj 31 711 print dump;
#X text 29 520 Hint: You can use [expr] to get the size of a table
if you want to dump everything:;
#N canvas 506 181 494 396 META 0;
#X text 12 25 LICENSE SIBSD;
#X text 12 105 AUTHOR Frank Barknecht;
#X text 12 125 HELP_PATCH_AUTHORS Frank Barknecht. "pd meta" information
added by Jonathan Wilkes for Pd version 0.42.;
#X text 12 5 KEYWORDS control list_op;
#X text 12 45 DESCRIPTION get a table's content as a list;
#X text 12 65 INLET_0 bang float list;
#X text 12 85 OUTLET_0 list;
#X restore 812 710 pd META;
#X obj 31 676 listing-tabdump y-dump;
#X text 11 42 NOTE list-tabdump doesnt load for some reason \, this
is a work around;
#X connect 1 0 10 0;
#X connect 2 0 1 0;
#X connect 3 0 27 0;
#X connect 5 0 6 0;
#X connect 6 0 7 0;
#X connect 11 0 27 0;
#X connect 12 0 27 0;
#X connect 13 0 27 0;
#X connect 14 0 27 0;
#X connect 15 0 16 0;
#X connect 15 0 18 1;
#X connect 17 0 18 0;
#X connect 17 1 15 0;
#X connect 18 0 32 0;
#X connect 19 0 17 0;
#X connect 27 0 4 0;
#X connect 32 0 29 0;
#X restore 1540 988 pd listing-tabdump-help;
#X obj 485 83 dumpOSC 9997;
#N canvas 0 0 1782 1003 brokenSend 0;
#N canvas 397 268 450 696 listing-tabdump 0;
#X obj 38 52 inlet;
#X obj 38 657 outlet;
#X obj 58 318 f \$2;
#X obj 116 439 until;
#X obj 155 479 + 1;
#X obj 116 552 tabread \$1;
#X obj 185 477 symbol \$1;
#X msg 185 498 set \$1;
#X obj 76 289 unpack 0 0 s;
#X obj 123 82 s \$0-reset;
#X obj 195 551 r \$0-reset;
#X obj 164 439 f \$3;
#X obj 116 479 f;
#X obj 164 392 r \$0-reset;
#X obj 58 359 moses;
#X obj 58 151 list prepend;
#X obj 58 179 route 0 1 2 3;
#X obj 101 213 list append 0;
#X obj 38 84 t b a a b;
#N canvas 424 58 546 300 rot1 0;
#X obj 173 193 list prepend;
#X obj 151 44 inlet;
#X obj 259 115 inlet;
#X text 311 115 how often to rotate;
#X obj 151 220 list;
#X text 198 43 list to rotate;
#X obj 151 250 outlet;
#X text 267 194 move right part of list to left.;
#X obj 151 70 t b a b;
#X obj 174 152 list split 1;
#X connect 0 0 4 1;
#X connect 1 0 8 0;
#X connect 2 0 9 1;
#X connect 4 0 6 0;
#X connect 8 0 4 0;
#X connect 8 1 9 0;
#X connect 8 2 0 1;
#X connect 9 0 0 0;
#X connect 9 1 0 1;
#X restore 101 258 pd rot1;
#N canvas 0 0 620 971 msgbox 0;
#X obj 94 113 inlet;
#X msg 164 130 send /graphData 0 0 6.10352e-005 0.000244141 0.000488281
0.000823975 0.00128174 0.00186157 0.00250244 0.00320435;
#X obj 88 193 outlet;
#X text 163 108 hidden msgbox to not clutter the main patch;
#X connect 0 0 1 0;
#X connect 1 0 2 0;
#X restore 38 623 pd msgbox;
#X obj 138 124 list length;
#X text 6 3 taken from list-tabdump NOT MY WORK;
#X obj 194 596 print value;
#X obj 267 514 print;
#X obj 86 516 t b f;
#X msg 115 573 add2 \$1;
#X msg 195 574 set send /graphData;
#X connect 0 0 18 0;
#X connect 2 0 14 0;
#X connect 3 0 12 0;
#X connect 4 0 12 1;
#X connect 5 0 26 0;
#X connect 6 0 7 0;
#X connect 6 0 24 0;
#X connect 7 0 5 0;
#X connect 8 0 2 0;
#X connect 8 1 11 0;
#X connect 8 2 6 0;
#X connect 10 0 27 0;
#X connect 11 0 12 1;
#X connect 12 0 4 0;
#X connect 12 0 25 0;
#X connect 13 0 11 0;
#X connect 14 1 3 0;
#X connect 15 0 16 0;
#X connect 16 0 2 0;
#X connect 16 1 2 0;
#X connect 16 2 17 0;
#X connect 16 3 19 0;
#X connect 17 0 19 0;
#X connect 18 0 20 0;
#X connect 18 1 15 0;
#X connect 18 2 21 0;
#X connect 18 3 9 0;
#X connect 19 0 8 0;
#X connect 20 0 1 0;
#X connect 21 0 15 1;
#X connect 25 1 5 0;
#X connect 26 0 20 0;
#X connect 27 0 20 0;
#X restore 741 475 pd listing-tabdump;
#X obj 870 444 r sampleSize;
#X obj 874 536 print number of segments;
#X obj 779 579 sendOSC;
#X floatatom 779 604 5 0 0 0 - - -;
#X msg 625 545 disconnect;
#X floatatom 818 604 5 0 0 0 - - -;
#X obj 615 476 loadbang;
#X obj 620 502 bng 15 250 50 0 empty empty empty 17 7 0 10 -262144
-1 -1;
#X msg 620 525 connect localhost 9998;
#X obj 780 511 print;
#X text 792 380 take 300 elements \, starting at element 3 e.g. (songArray.subList(2
\, 1027));
#X obj 592 579 r sampleSize;
#X msg 615 608 send /graphSize \$1;
#X msg 560 580 600;
#X obj 873 491 / 300;
#X obj 715 109 r sampleSize;
#X floatatom 763 269 20 0 0 0 - - -;
#X obj 733 312 pack f f;
#X obj 735 220 + 2;
#X obj 664 172 f;
#X obj 696 172 + 1;
#X obj 659 139 bng 15 250 50 0 empty empty empty 17 7 0 10 -262144
-1 -1;
#X obj 714 242 min;
#X obj 642 63 tgl 15 0 empty empty empty 17 7 0 10 -262144 -1 -1 0
1;
#X msg 737 342 list songarray \$1 \$2;
#X msg 712 291 10;
#X obj 732 195 * 10;
#X msg 776 290 \$1;
#X obj 679 265 bng 15 250 50 0 empty empty empty 17 7 0 10 -262144
-1 -1;
#X msg 612 139 0;
#X obj 643 91 metro 1000;
#X obj 680 368 print query;
#X connect 0 0 3 0;
#X connect 0 0 10 0;
#X connect 1 0 15 0;
#X connect 3 0 4 0;
#X connect 3 1 6 0;
#X connect 5 0 3 0;
#X connect 7 0 8 0;
#X connect 8 0 9 0;
#X connect 9 0 3 0;
#X connect 12 0 13 0;
#X connect 13 0 3 0;
#X connect 14 0 13 0;
#X connect 15 0 2 0;
#X connect 16 0 22 0;
#X connect 16 0 23 1;
#X connect 17 0 28 0;
#X connect 17 0 29 0;
#X connect 18 0 25 0;
#X connect 19 0 23 0;
#X connect 20 0 21 0;
#X connect 21 0 20 1;
#X connect 21 0 27 0;
#X connect 22 0 20 0;
#X connect 23 0 17 0;
#X connect 24 0 31 0;
#X connect 25 0 0 0;
#X connect 25 0 32 0;
#X connect 26 0 18 0;
#X connect 27 0 19 0;
#X connect 28 0 18 1;
#X connect 29 0 26 0;
#X connect 30 0 20 0;
#X connect 31 0 22 0;
#X restore 1689 988 pd brokenSend;
#X obj 1376 302 r sampleSize;
#X floatatom 1358 333 20 0 0 0 - - -;
#X obj 1358 303 bng 15 250 50 0 empty empty empty 17 7 0 10 -262144
-1 -1;
#N canvas 0 0 875 1021 fancyFileWriting 0;
#X obj 207 56 savepanel;
#X obj 286 293 sendOSC;
#X floatatom 286 318 5 0 0 0 - - -;
#X msg 357 268 disconnect;
#X floatatom 325 318 5 0 0 0 - - -;
#X msg 352 248 connect localhost 9998;
#X obj 221 288 print;
#X msg 283 225 send /graphData '\$1';
#X obj 226 181 print;
#X obj 249 107 split_path;
#X msg 152 213 \; songarray write \$1;
#X connect 0 0 10 0;
#X connect 0 0 9 0;
#X connect 1 0 2 0;
#X connect 1 1 4 0;
#X connect 3 0 1 0;
#X connect 5 0 1 0;
#X connect 7 0 1 0;
#X connect 7 0 6 0;
#X connect 9 1 8 0;
#X connect 9 1 7 0;
#X restore 1412 988 pd fancyFileWriting;
#X msg 1056 230 \; songarray write ../mainSketch/graph.txt;
#X obj 1056 174 bng 15 250 50 0 empty empty empty 0 -6 0 8 -262144
-1 -1;
#X obj 1056 627 sendOSC;
#X floatatom 1056 652 5 0 0 0 - - -;
#X floatatom 1095 652 5 0 0 0 - - -;
#X msg 1056 333 disconnect;
#X msg 1145 332 connect localhost 9998;
#X msg 992 309 send /graphData 0;
#X obj 1056 153 OSCroute /generateGraph;
#X text 1064 213 writeout array to sketch folder;
#X text 543 231 song selection opener;
#X msg 1358 360 send /graphSize \$1;
#X obj 970 235 delay 3000;
#X obj 992 274 bng 15 250 50 0 empty empty empty 17 7 0 10 -262144
-1 -1;
#X msg 770 610 send /progress \$1;
#X msg 350 379 0;
#X text 1452 303 how many samples exist in the song;
#X obj 581 445 loadbang;
#X text 299 408 playback slider;
#X obj 1169 269 loadbang;
#X obj 1157 299 bng 15 250 50 0 empty empty empty 17 7 0 10 -262144
-1 -1;
#X floatatom 334 451 12 0 0 0 - - -;
#X msg 395 338 1;
#X obj 390 307 bng 15 250 50 0 empty empty empty 17 7 0 10 -262144
-1 -1;
#X text 385 293 reset;
#X obj 196 336 loadbang;
#X msg 203 372 1;
#X connect 1 0 2 0;
#X connect 1 1 4 0;
#X connect 3 0 1 0;
#X connect 5 0 6 0;
#X connect 6 0 10 0;
#X connect 7 0 8 0;
#X connect 7 0 0 0;
#X connect 8 0 9 0;
#X connect 9 0 1 0;
#X connect 10 0 1 0;
#X connect 11 0 5 0;
#X connect 11 0 13 0;
#X connect 12 0 14 0;
#X connect 14 0 15 0;
#X connect 15 0 17 0;
#X connect 17 0 18 0;
#X connect 18 0 19 0;
#X connect 18 0 21 0;
#X connect 19 0 20 0;
#X connect 21 0 22 0;
#X connect 21 0 23 0;
#X connect 22 0 48 0;
#X connect 23 0 24 0;
#X connect 24 0 25 0;
#X connect 24 0 81 0;
#X connect 25 0 29 0;
#X connect 26 0 31 0;
#X connect 27 0 28 0;
#X connect 28 0 30 0;
#X connect 28 0 106 0;
#X connect 29 0 68 0;
#X connect 29 0 68 1;
#X connect 31 0 27 1;
#X connect 32 0 24 1;
#X connect 33 0 35 0;
#X connect 34 0 51 0;
#X connect 35 0 42 0;
#X connect 35 0 43 0;
#X connect 36 0 41 0;
#X connect 38 0 40 0;
#X connect 40 0 43 1;
#X connect 41 0 42 1;
#X connect 42 0 37 0;
#X connect 43 0 39 0;
#X connect 44 0 23 0;
#X connect 44 0 113 0;
#X connect 45 0 44 0;
#X connect 46 0 45 0;
#X connect 47 0 45 0;
#X connect 49 0 40 0;
#X connect 50 0 41 0;
#X connect 51 0 33 0;
#X connect 52 0 29 1;
#X connect 52 0 54 0;
#X connect 54 0 55 0;
#X connect 56 0 52 0;
#X connect 60 0 52 0;
#X connect 61 0 52 0;
#X connect 62 0 61 1;
#X connect 62 0 60 1;
#X connect 62 0 56 1;
#X connect 63 0 56 0;
#X connect 64 0 60 0;
#X connect 65 0 61 0;
#X connect 80 0 52 0;
#X connect 81 0 84 0;
#X connect 82 0 81 0;
#X connect 83 0 82 0;
#X connect 84 0 27 0;
#X connect 84 0 79 0;
#X connect 86 0 11 0;
#X connect 86 0 12 0;
#X connect 86 0 100 0;
#X connect 88 0 89 0;
#X connect 89 0 103 0;
#X connect 90 0 89 0;
#X connect 93 0 92 0;
#X connect 93 0 104 0;
#X connect 94 0 95 0;
#X connect 94 1 96 0;
#X connect 97 0 94 0;
#X connect 98 0 94 0;
#X connect 99 0 94 0;
#X connect 100 0 93 0;
#X connect 103 0 94 0;
#X connect 104 0 105 0;
#X connect 105 0 99 0;
#X connect 106 0 94 0;
#X connect 107 0 44 0;
#X connect 109 0 83 0;
#X connect 111 0 112 0;
#X connect 112 0 98 0;
#X connect 114 0 23 1;
#X connect 115 0 114 0;
#X connect 117 0 118 0;
#X connect 118 0 52 0;
